<svg xmlns="http://www.w3.org/2000/svg" xmlns:xlink="http://www.w3.org/1999/xlink" width="2000" zoomAndPan="magnify" viewBox="0 0 1500 1499.999933" height="2000" preserveAspectRatio="xMidYMid meet" version="1.0"><defs><clipPath id="e8ff7569e6"><path d="M 26.402344 14.179688 L 1473.597656 14.179688 L 1473.597656 1461.375 L 26.402344 1461.375 Z M 26.402344 14.179688 " clip-rule="nonzero"/></clipPath><clipPath id="0001e3d39e"><path d="M 101.402344 14.179688 L 1398.597656 14.179688 C 1440.019531 14.179688 1473.597656 47.757812 1473.597656 89.179688 L 1473.597656 1386.375 C 1473.597656 1427.796875 1440.019531 1461.375 1398.597656 1461.375 L 101.402344 1461.375 C 59.980469 1461.375 26.402344 1427.796875 26.402344 1386.375 L 26.402344 89.179688 C 26.402344 47.757812 59.980469 14.179688 101.402344 14.179688 Z M 101.402344 14.179688 " clip-rule="nonzero"/></clipPath><clipPath id="ecd34a765f"><path d="M 0.402344 0.179688 L 1447.597656 0.179688 L 1447.597656 1447.375 L 0.402344 1447.375 Z M 0.402344 0.179688 " clip-rule="nonzero"/></clipPath><clipPath id="37d26d1de2"><path d="M 75.402344 0.179688 L 1372.597656 0.179688 C 1414.019531 0.179688 1447.597656 33.757812 1447.597656 75.179688 L 1447.597656 1372.375 C 1447.597656 1413.796875 1414.019531 1447.375 1372.597656 1447.375 L 75.402344 1447.375 C 33.980469 1447.375 0.402344 1413.796875 0.402344 1372.375 L 0.402344 75.179688 C 0.402344 33.757812 33.980469 0.179688 75.402344 0.179688 Z M 75.402344 0.179688 " clip-rule="nonzero"/></clipPath><clipPath id="3dfc034c6c"><rect x="0" width="1448" y="0" height="1448"/></clipPath><clipPath id="8e7c47aef7"><path d="M 545.402344 582.539062 L 927.695312 582.539062 L 927.695312 1239.601562 L 545.402344 1239.601562 Z M 545.402344 582.539062 " clip-rule="nonzero"/></clipPath><clipPath id="6cd579d6b3"><path d="M 736.550781 582.539062 L 927.695312 582.539062 L 736.550781 1239.566406 L 545.402344 1239.566406 Z M 736.550781 582.539062 " clip-rule="nonzero"/></clipPath><clipPath id="1e9f9ca4fd"><path d="M 0.402344 0.539062 L 382.695312 0.539062 L 382.695312 657.601562 L 0.402344 657.601562 Z M 0.402344 0.539062 " clip-rule="nonzero"/></clipPath><clipPath id="a395c33f6f"><path d="M 191.550781 0.539062 L 382.695312 0.539062 L 191.550781 657.566406 L 0.402344 657.566406 Z M 191.550781 0.539062 " clip-rule="nonzero"/></clipPath><clipPath id="3480cba95d"><rect x="0" width="383" y="0" height="658"/></clipPath><clipPath id="3a871ed41e"><path d="M 254.304688 304.128906 L 1298 304.128906 L 1298 607.257812 L 254.304688 607.257812 Z M 254.304688 304.128906 " clip-rule="nonzero"/></clipPath><clipPath id="947d13593b"><path d="M 515.226562 304.128906 L 1297.996094 304.128906 L 1037.074219 607.257812 L 254.304688 607.257812 Z M 515.226562 304.128906 " clip-rule="nonzero"/></clipPath><clipPath id="2727319870"><path d="M 0.304688 0.128906 L 1044 0.128906 L 1044 303.257812 L 0.304688 303.257812 Z M 0.304688 0.128906 " clip-rule="nonzero"/></clipPath><clipPath id="5de89bcd87"><path d="M 261.226562 0.128906 L 1043.996094 0.128906 L 783.074219 303.257812 L 0.304688 303.257812 Z M 261.226562 0.128906 " clip-rule="nonzero"/></clipPath><clipPath id="9722d309bf"><rect x="0" width="1044" y="0" height="304"/></clipPath><clipPath id="0824976175"><path d="M 78 210.988281 L 549 210.988281 L 549 700.394531 L 78 700.394531 Z M 78 210.988281 " clip-rule="nonzero"/></clipPath><clipPath id="20e323d3f3"><path d="M 373.652344 210.988281 L 512.304688 210.988281 C 524.980469 210.988281 536.730469 217.628906 543.269531 228.484375 C 549.8125 239.339844 550.191406 252.828125 544.269531 264.035156 L 341.6875 647.347656 C 324.441406 679.980469 290.5625 700.394531 253.652344 700.394531 L 115.003906 700.394531 C 102.328125 700.394531 90.578125 693.757812 84.035156 682.902344 C 77.492188 672.042969 77.117188 658.554688 83.039062 647.347656 L 285.617188 264.035156 C 302.863281 231.40625 336.746094 210.988281 373.652344 210.988281 Z M 373.652344 210.988281 " clip-rule="nonzero"/></clipPath><clipPath id="8e9bca668e"><path d="M 0 0.988281 L 471 0.988281 L 471 490.394531 L 0 490.394531 Z M 0 0.988281 " clip-rule="nonzero"/></clipPath><clipPath id="37501d7cd3"><path d="M 295.652344 0.988281 L 434.304688 0.988281 C 446.980469 0.988281 458.730469 7.628906 465.269531 18.484375 C 471.8125 29.339844 472.191406 42.828125 466.269531 54.035156 L 263.6875 437.347656 C 246.441406 469.980469 212.5625 490.394531 175.652344 490.394531 L 37.003906 490.394531 C 24.328125 490.394531 12.578125 483.757812 6.035156 472.902344 C -0.507812 462.042969 -0.882812 448.554688 5.039062 437.347656 L 207.617188 54.035156 C 224.863281 21.40625 258.746094 0.988281 295.652344 0.988281 Z M 295.652344 0.988281 " clip-rule="nonzero"/></clipPath><clipPath id="45e075bd93"><rect x="0" width="471" y="0" height="491"/></clipPath><clipPath id="cdd67edd75"><path d="M 951 210.988281 L 1422 210.988281 L 1422 700.394531 L 951 700.394531 Z M 951 210.988281 " clip-rule="nonzero"/></clipPath><clipPath id="2ceccbee68"><path d="M 1246.347656 210.988281 L 1384.996094 210.988281 C 1397.671875 210.988281 1409.421875 217.628906 1415.964844 228.484375 C 1422.507812 239.339844 1422.882812 252.828125 1416.960938 264.035156 L 1214.382812 647.347656 C 1197.136719 679.980469 1163.253906 700.394531 1126.347656 700.394531 L 987.695312 700.394531 C 975.019531 700.394531 963.269531 693.757812 956.730469 682.902344 C 950.1875 672.042969 949.808594 658.554688 955.730469 647.347656 L 1158.3125 264.035156 C 1175.558594 231.40625 1209.4375 210.988281 1246.347656 210.988281 Z M 1246.347656 210.988281 " clip-rule="nonzero"/></clipPath><clipPath id="20c9fc5d8b"><path d="M 0 0.988281 L 471 0.988281 L 471 490.394531 L 0 490.394531 Z M 0 0.988281 " clip-rule="nonzero"/></clipPath><clipPath id="e23f7ab199"><path d="M 295.347656 0.988281 L 433.996094 0.988281 C 446.671875 0.988281 458.421875 7.628906 464.964844 18.484375 C 471.507812 29.339844 471.882812 42.828125 465.960938 54.035156 L 263.382812 437.347656 C 246.136719 469.980469 212.253906 490.394531 175.347656 490.394531 L 36.695312 490.394531 C 24.019531 490.394531 12.269531 483.757812 5.730469 472.902344 C -0.8125 462.042969 -1.191406 448.554688 4.730469 437.347656 L 207.3125 54.035156 C 224.558594 21.40625 258.4375 0.988281 295.347656 0.988281 Z M 295.347656 0.988281 " clip-rule="nonzero"/></clipPath><clipPath id="80567bb9b9"><rect x="0" width="471" y="0" height="491"/></clipPath><clipPath id="b631d1f262"><path d="M 217.390625 594.898438 L 599.683594 594.898438 L 599.683594 1228 L 217.390625 1228 Z M 217.390625 594.898438 " clip-rule="nonzero"/></clipPath><clipPath id="e55e2d83d5"><path d="M 408.535156 594.898438 L 599.683594 594.898438 L 408.535156 1227.207031 L 217.390625 1227.207031 Z M 408.535156 594.898438 " clip-rule="nonzero"/></clipPath><clipPath id="6677ba109f"><path d="M 0.390625 0.898438 L 382.683594 0.898438 L 382.683594 633 L 0.390625 633 Z M 0.390625 0.898438 " clip-rule="nonzero"/></clipPath><clipPath id="ff02be466d"><path d="M 191.535156 0.898438 L 382.683594 0.898438 L 191.535156 633.207031 L 0.390625 633.207031 Z M 191.535156 0.898438 " clip-rule="nonzero"/></clipPath><clipPath id="15866a210d"><rect x="0" width="383" y="0" height="634"/></clipPath><clipPath id="257ef4fde8"><path d="M 424.375 1190.125 L 832.667969 1190.125 L 832.667969 1289.011719 L 424.375 1289.011719 Z M 424.375 1190.125 " clip-rule="nonzero"/></clipPath><clipPath id="5a161d8c2c"><path d="M 544.5 1190.125 L 822.277344 1190.125 C 826.453125 1190.125 830.195312 1192.695312 831.691406 1196.589844 C 833.1875 1200.488281 832.128906 1204.902344 829.03125 1207.699219 L 758.3125 1271.4375 C 745.761719 1282.75 729.464844 1289.011719 712.566406 1289.011719 L 434.785156 1289.011719 C 430.613281 1289.011719 426.871094 1286.4375 425.375 1282.542969 C 423.875 1278.644531 424.933594 1274.230469 428.035156 1271.4375 L 498.75 1207.699219 C 511.304688 1196.386719 527.601562 1190.125 544.5 1190.125 Z M 544.5 1190.125 " clip-rule="nonzero"/></clipPath><clipPath id="c838d5ecc9"><path d="M 0.375 0.125 L 408.667969 0.125 L 408.667969 99.011719 L 0.375 99.011719 Z M 0.375 0.125 " clip-rule="nonzero"/></clipPath><clipPath id="24529dd4ac"><path d="M 120.5 0.125 L 398.277344 0.125 C 402.453125 0.125 406.195312 2.695312 407.691406 6.589844 C 409.1875 10.488281 408.128906 14.902344 405.03125 17.699219 L 334.3125 81.4375 C 321.761719 92.75 305.464844 99.011719 288.566406 99.011719 L 10.785156 99.011719 C 6.613281 99.011719 2.871094 96.4375 1.375 92.542969 C -0.125 88.644531 0.933594 84.230469 4.035156 81.4375 L 74.75 17.699219 C 87.304688 6.386719 103.601562 0.125 120.5 0.125 Z M 120.5 0.125 " clip-rule="nonzero"/></clipPath><clipPath id="8df62e0a3d"><rect x="0" width="409" y="0" height="100"/></clipPath><clipPath id="b6e8135037"><path d="M 100 1190.125 L 479.261719 1190.125 L 479.261719 1289.011719 L 100 1289.011719 Z M 100 1190.125 " clip-rule="nonzero"/></clipPath><clipPath id="1d7aab351e"><path d="M 220.066406 1190.125 L 469.175781 1190.125 C 473.351562 1190.125 477.09375 1192.695312 478.589844 1196.589844 C 480.085938 1200.488281 479.027344 1204.902344 475.925781 1207.699219 L 405.210938 1271.4375 C 392.660156 1282.75 376.359375 1289.011719 359.464844 1289.011719 L 110.351562 1289.011719 C 106.179688 1289.011719 102.433594 1286.4375 100.9375 1282.542969 C 99.441406 1278.644531 100.5 1274.230469 103.601562 1271.4375 L 174.316406 1207.699219 C 186.867188 1196.386719 203.167969 1190.125 220.066406 1190.125 Z M 220.066406 1190.125 " clip-rule="nonzero"/></clipPath><clipPath id="c046576352"><path d="M 0 0.125 L 379.261719 0.125 L 379.261719 99.011719 L 0 99.011719 Z M 0 0.125 " clip-rule="nonzero"/></clipPath><clipPath id="5e6c0434a3"><path d="M 120.066406 0.125 L 369.175781 0.125 C 373.351562 0.125 377.09375 2.695312 378.589844 6.589844 C 380.085938 10.488281 379.027344 14.902344 375.925781 17.699219 L 305.210938 81.4375 C 292.660156 92.75 276.359375 99.011719 259.464844 99.011719 L 10.351562 99.011719 C 6.179688 99.011719 2.433594 96.4375 0.9375 92.542969 C -0.558594 88.644531 0.5 84.230469 3.601562 81.4375 L 74.316406 17.699219 C 86.867188 6.386719 103.167969 0.125 120.066406 0.125 Z M 120.066406 0.125 " clip-rule="nonzero"/></clipPath><clipPath id="556c3ca40e"><rect x="0" width="380" y="0" height="100"/></clipPath><clipPath id="c90bb8ef46"><path d="M 52 57 L 441 57 L 441 399 L 52 399 Z M 52 57 " clip-rule="nonzero"/></clipPath><clipPath id="e8aa42bd52"><path d="M 78.988281 403.800781 L 14.089844 157.996094 L 414.027344 52.402344 L 478.925781 298.210938 Z M 78.988281 403.800781 " clip-rule="nonzero"/></clipPath><clipPath id="b7503ef397"><path d="M 53.238281 306.28125 L 73.882812 384.464844 C 75.441406 390.375 79.734375 395.183594 85.429688 397.398438 C 91.125 399.617188 97.535156 398.976562 102.679688 395.675781 L 424.066406 189.5625 C 437.234375 181.113281 443.453125 165.136719 439.460938 150.011719 L 418.816406 71.824219 C 417.257812 65.914062 412.964844 61.109375 407.269531 58.890625 C 401.574219 56.675781 395.164062 57.316406 390.019531 60.613281 L 68.632812 266.730469 C 55.464844 275.175781 49.246094 291.152344 53.238281 306.28125 Z M 53.238281 306.28125 " clip-rule="nonzero"/></clipPath><clipPath id="b98c201d21"><path d="M 0 0 L 389 0 L 389 342 L 0 342 Z M 0 0 " clip-rule="nonzero"/></clipPath><clipPath id="b5dfc26c61"><path d="M 26.988281 346.800781 L -37.910156 100.996094 L 362.027344 -4.597656 L 426.925781 241.210938 Z M 26.988281 346.800781 " clip-rule="nonzero"/></clipPath><clipPath id="ffe315fe49"><path d="M 1.238281 249.28125 L 21.882812 327.464844 C 23.441406 333.375 27.734375 338.183594 33.429688 340.398438 C 39.125 342.617188 45.535156 341.976562 50.679688 338.675781 L 372.066406 132.5625 C 385.234375 124.113281 391.453125 108.136719 387.460938 93.011719 L 366.816406 14.824219 C 365.257812 8.914062 360.964844 4.109375 355.269531 1.890625 C 349.574219 -0.324219 343.164062 0.316406 338.019531 3.613281 L 16.632812 209.730469 C 3.464844 218.175781 -2.753906 234.152344 1.238281 249.28125 Z M 1.238281 249.28125 " clip-rule="nonzero"/></clipPath><clipPath id="3198ac2f40"><rect x="0" width="389" y="0" height="342"/></clipPath><clipPath id="8c8bf55e5c"><path d="M 85 13 L 407 13 L 407 443 L 85 443 Z M 85 13 " clip-rule="nonzero"/></clipPath><clipPath id="620bbb4adb"><path d="M 4.167969 213.53125 L 150.167969 5.40625 L 488.796875 242.953125 L 342.800781 451.078125 Z M 4.167969 213.53125 " clip-rule="nonzero"/></clipPath><clipPath id="5ab0f83650"><path d="M 92.242188 87.976562 L 138.683594 21.777344 C 142.191406 16.773438 147.882812 13.75 153.992188 13.644531 C 160.101562 13.535156 165.894531 16.355469 169.578125 21.230469 L 399.710938 325.882812 C 409.140625 338.367188 409.441406 355.507812 400.457031 368.316406 L 354.015625 434.519531 C 350.507812 439.523438 344.816406 442.546875 338.707031 442.652344 C 332.597656 442.761719 326.804688 439.941406 323.121094 435.0625 L 92.988281 130.414062 C 83.558594 117.929688 83.257812 100.785156 92.242188 87.976562 Z M 92.242188 87.976562 " clip-rule="nonzero"/></clipPath><clipPath id="409ad62b99"><path d="M 0 0.480469 L 322 0.480469 L 322 429.839844 L 0 429.839844 Z M 0 0.480469 " clip-rule="nonzero"/></clipPath><clipPath id="c726fbb84d"><path d="M -80.832031 200.53125 L 65.167969 -7.59375 L 403.796875 229.953125 L 257.800781 438.078125 Z M -80.832031 200.53125 " clip-rule="nonzero"/></clipPath><clipPath id="1732aa7733"><path d="M 7.242188 74.976562 L 53.683594 8.777344 C 57.191406 3.773438 62.882812 0.75 68.992188 0.644531 C 75.101562 0.535156 80.894531 3.355469 84.578125 8.230469 L 314.710938 312.882812 C 324.140625 325.367188 324.441406 342.507812 315.457031 355.316406 L 269.015625 421.519531 C 265.507812 426.523438 259.816406 429.546875 253.707031 429.652344 C 247.597656 429.761719 241.804688 426.941406 238.121094 422.0625 L 7.988281 117.414062 C -1.441406 104.929688 -1.742188 87.785156 7.242188 74.976562 Z M 7.242188 74.976562 " clip-rule="nonzero"/></clipPath><clipPath id="092d7f3a9f"><rect x="0" width="322" y="0" height="430"/></clipPath><clipPath id="e24861b466"><rect x="0" width="493" y="0" height="457"/></clipPath></defs><g clip-path="url(#e8ff7569e6)"><g clip-path="url(#0001e3d39e)"><g transform="matrix(1, 0, 0, 1, 26, 14)"><g clip-path="url(#3dfc034c6c)"><g clip-path="url(#ecd34a765f)"><g clip-path="url(#37d26d1de2)"><path fill="#fd5342" d="M 0.402344 0.179688 L 1447.597656 0.179688 L 1447.597656 1447.375 L 0.402344 1447.375 Z M 0.402344 0.179688 " fill-opacity="1" fill-rule="nonzero"/></g></g></g></g></g></g><g clip-path="url(#8e7c47aef7)"><g clip-path="url(#6cd579d6b3)"><g transform="matrix(1, 0, 0, 1, 545, 582)"><g clip-path="url(#3480cba95d)"><g clip-path="url(#1e9f9ca4fd)"><g clip-path="url(#a395c33f6f)"><path fill="#ffffff" d="M 0.402344 0.539062 L 382.695312 0.539062 L 382.695312 657.601562 L 0.402344 657.601562 Z M 0.402344 0.539062 " fill-opacity="1" fill-rule="nonzero"/></g></g></g></g></g></g><g clip-path="url(#3a871ed41e)"><g clip-path="url(#947d13593b)"><g transform="matrix(1, 0, 0, 1, 254, 304)"><g clip-path="url(#9722d309bf)"><g clip-path="url(#2727319870)"><g clip-path="url(#5de89bcd87)"><path fill="#ffffff" d="M 0.304688 0.128906 L 1043.492188 0.128906 L 1043.492188 303.257812 L 0.304688 303.257812 Z M 0.304688 0.128906 " fill-opacity="1" fill-rule="nonzero"/></g></g></g></g></g></g><g clip-path="url(#0824976175)"><g clip-path="url(#20e323d3f3)"><g transform="matrix(1, 0, 0, 1, 78, 210)"><g clip-path="url(#45e075bd93)"><g clip-path="url(#8e9bca668e)"><g clip-path="url(#37501d7cd3)"><path fill="#ffffff" d="M -22.996094 0.988281 L 495.085938 0.988281 L 495.085938 490.394531 L -22.996094 490.394531 Z M -22.996094 0.988281 " fill-opacity="1" fill-rule="nonzero"/></g></g></g></g></g></g><g clip-path="url(#cdd67edd75)"><g clip-path="url(#2ceccbee68)"><g transform="matrix(1, 0, 0, 1, 951, 210)"><g clip-path="url(#80567bb9b9)"><g clip-path="url(#20c9fc5d8b)"><g clip-path="url(#e23f7ab199)"><path fill="#ffffff" d="M -23.304688 0.988281 L 494.777344 0.988281 L 494.777344 490.394531 L -23.304688 490.394531 Z M -23.304688 0.988281 " fill-opacity="1" fill-rule="nonzero"/></g></g></g></g></g></g><g clip-path="url(#b631d1f262)"><g clip-path="url(#e55e2d83d5)"><g transform="matrix(1, 0, 0, 1, 217, 594)"><g clip-path="url(#15866a210d)"><g clip-path="url(#6677ba109f)"><g clip-path="url(#ff02be466d)"><path fill="#ffffff" d="M 0.390625 0.898438 L 382.683594 0.898438 L 382.683594 632.574219 L 0.390625 632.574219 Z M 0.390625 0.898438 " fill-opacity="1" fill-rule="nonzero"/></g></g></g></g></g></g><g clip-path="url(#257ef4fde8)"><g clip-path="url(#5a161d8c2c)"><g transform="matrix(1, 0, 0, 1, 424, 1190)"><g clip-path="url(#8df62e0a3d)"><g clip-path="url(#c838d5ecc9)"><g clip-path="url(#24529dd4ac)"><path fill="#ffffff" d="M -15.464844 0.125 L 424.503906 0.125 L 424.503906 99.011719 L -15.464844 99.011719 Z M -15.464844 0.125 " fill-opacity="1" fill-rule="nonzero"/></g></g></g></g></g></g><g clip-path="url(#b6e8135037)"><g clip-path="url(#1d7aab351e)"><g transform="matrix(1, 0, 0, 1, 100, 1190)"><g clip-path="url(#556c3ca40e)"><g clip-path="url(#c046576352)"><g clip-path="url(#5e6c0434a3)"><path fill="#ffffff" d="M -15.898438 0.125 L 395.488281 0.125 L 395.488281 99.011719 L -15.898438 99.011719 Z M -15.898438 0.125 " fill-opacity="1" fill-rule="nonzero"/></g></g></g></g></g></g><g transform="matrix(1, 0, 0, 1, 940, 833)"><g clip-path="url(#e24861b466)"><g clip-path="url(#c90bb8ef46)"><g clip-path="url(#e8aa42bd52)"><g clip-path="url(#b7503ef397)"><g transform="matrix(1, 0, 0, 1, 52, 57)"><g clip-path="url(#3198ac2f40)"><g clip-path="url(#b98c201d21)"><g clip-path="url(#b5dfc26c61)"><g clip-path="url(#ffe315fe49)"><path fill="#ffffff" d="M 28.582031 352.847656 L -39.507812 94.953125 L 360.429688 -10.640625 L 428.523438 247.253906 Z M 28.582031 352.847656 " fill-opacity="1" fill-rule="nonzero"/></g></g></g></g></g></g></g></g><g clip-path="url(#8c8bf55e5c)"><g clip-path="url(#620bbb4adb)"><g clip-path="url(#5ab0f83650)"><g transform="matrix(1, 0, 0, 1, 85, 13)"><g clip-path="url(#092d7f3a9f)"><g clip-path="url(#409ad62b99)"><g clip-path="url(#c726fbb84d)"><g clip-path="url(#1732aa7733)"><path fill="#ffffff" d="M -84.421875 205.648438 L 68.757812 -12.714844 L 407.386719 224.835938 L 254.207031 443.195312 Z M -84.421875 205.648438 " fill-opacity="1" fill-rule="nonzero"/></g></g></g></g></g></g></g></g></g></g></svg>